<?xml version="1.0" encoding="utf-8"?>
<!-- Generator: Adobe Illustrator 24.1.0, SVG Export Plug-In . SVG Version: 6.00 Build 0)  -->
<svg version="1.1" id="Layer_1" xmlns="http://www.w3.org/2000/svg" xmlns:xlink="http://www.w3.org/1999/xlink" x="0px" y="0px"
	 viewBox="0 0 50 50" style="enable-background:new 0 0 50 50;" xml:space="preserve">
<style type="text/css">
	.st0{fill:#46B049;}
	.st1{fill:#FFFFFF;}
</style>
<g>
	<path class="st0" d="M36.4,34.5c0,5,0,9.9,0,14.9c0,0.5-0.1,0.6-0.6,0.6c-9.9,0-19.8,0-29.7,0c-0.5,0-0.6-0.2-0.6-0.6
		c0-1.8,0-3.7,0-5.5c0-0.5-0.1-0.6-0.6-0.6c-1.5,0-3,0-4.5,0c-0.4,0-0.5-0.1-0.5-0.5C0,36,0,29.2,0,22.5C0,22.1,0.1,22,0.5,22
		c1.5,0,3.1,0,4.6,0c0.4,0,0.5-0.1,0.5-0.5c0-3.4,0-6.8,0-10.2c0-0.5,0.1-0.6,0.6-0.6c7,0,14,0,21.1,0c0.3,0,0.6,0.1,0.8,0.3
		c2.7,2.6,5.3,5.2,8,7.8c0.3,0.3,0.4,0.5,0.4,0.9C36.4,24.6,36.4,29.6,36.4,34.5z M33.4,34.5c0-3.9,0-7.9,0-11.8
		c0-0.8,0.1-0.7-0.7-0.7c-2.3,0-4.7,0-7,0c-0.4,0-0.6-0.1-0.6-0.6c0-2.4,0-4.8,0-7.2c0-0.4-0.1-0.5-0.5-0.5c-5.2,0-10.4,0-15.6,0
		c-0.4,0-0.5,0.1-0.5,0.5c0,2.4,0,4.8,0,7.2c0,0.5,0.1,0.6,0.6,0.6c3.8,0,7.6,0,11.5,0c0.5,0,0.6,0.1,0.6,0.6c0,6.7,0,13.3,0,20
		c0,0.5-0.1,0.6-0.6,0.6c-3.8,0-7.7,0-11.5,0c-0.4,0-0.6,0.1-0.5,0.5c0,0.9,0,1.8,0,2.7c0,0.5,0.1,0.6,0.6,0.6c7.9,0,15.8,0,23.7,0
		c0.5,0,0.6-0.2,0.6-0.6C33.4,42.4,33.4,38.4,33.4,34.5z M18.4,26c-1.5,0-2.9,0-4.3,0c-0.3,0-0.6,0.1-0.8,0.4c-0.9,1-1.7,2-2.6,3.1
		c-0.2,0.3-0.3,0.2-0.5,0c-0.9-1-1.7-2-2.6-3.1C7.4,26.1,7.2,26,6.8,26c-1,0-1.9,0-2.9,0c-0.4,0-0.9,0-1.4,0
		c0.1,0.2,0.2,0.3,0.3,0.4c1.6,1.9,3.2,3.9,4.8,5.8c0.3,0.3,0.3,0.5,0,0.8c-1.6,1.9-3.2,3.8-4.8,5.7c-0.1,0.1-0.3,0.2-0.2,0.4
		c1.6,0,3.1,0,4.6,0c0.3,0,0.4-0.2,0.5-0.3c0.9-1,1.7-2.1,2.6-3.2c0.5,0.6,1,1.2,1.5,1.7c0.5,0.6,0.9,1.4,1.5,1.6
		c0.6,0.3,1.5,0.1,2.2,0.1c0.4,0,0.7,0,1.1,0c0.5,0,1,0,1.5,0c0-0.3-0.2-0.4-0.3-0.5c-1.6-1.9-3.2-3.8-4.8-5.6
		c-0.2-0.3-0.3-0.4,0-0.7c0.5-0.6,1-1.2,1.5-1.8C15.9,29.1,17.1,27.6,18.4,26z"/>
	<path class="st0" d="M40.5,0c0.9,0.7,1.7,1.3,2.5,1.9c2.2,1.7,4.4,3.4,6.6,5c0.2,0.2,0.5,0.3,0.1,0.6c-3,2.2-6,4.5-8.9,6.8
		c0,0-0.1,0-0.2,0.1c0-1.2,0-2.3,0-3.4c0-0.9,0-0.9-0.8-0.9c-3.5,0-7,0-10.5,0c-0.4,0-0.5-0.1-0.5-0.5c0-1.6,0-3.1,0-4.7
		c0-0.5,0.2-0.6,0.6-0.6c3.6,0,7.1,0,10.7,0c0.5,0,0.6-0.1,0.6-0.6C40.5,2.6,40.5,1.3,40.5,0z"/>
	<path class="st1" d="M27.5,29.2c0.8,0,1.7,0,2.5,0c0.3,0,0.4-0.1,0.4-0.4c0-0.7,0-1.5,0-2.2c0-0.3-0.1-0.3-0.4-0.3
		c-1.7,0-3.3,0-5,0c-0.3,0-0.4,0.1-0.4,0.3c0,0.7,0,1.5,0,2.2c0,0.3,0.1,0.4,0.4,0.4C25.9,29.2,26.7,29.2,27.5,29.2z M27.5,36.2
		c0.8,0,1.6,0,2.5,0c0.3,0,0.4-0.1,0.4-0.4c0-0.7,0-1.4,0-2.1c0-0.3-0.1-0.4-0.4-0.4c-1.6,0-3.3,0-4.9,0c-0.3,0-0.4,0.1-0.4,0.4
		c0,0.7,0,1.4,0,2.2c0,0.3,0.1,0.4,0.4,0.4C25.9,36.2,26.7,36.2,27.5,36.2z M27.5,43.2c0.8,0,1.6,0,2.5,0c0.3,0,0.4,0,0.4-0.4
		c0-0.7,0-1.5,0-2.2c0-0.3-0.1-0.4-0.4-0.4c-1.7,0-3.3,0-5,0c-0.3,0-0.4,0.1-0.4,0.4c0,0.7,0,1.5,0,2.2c0,0.3,0.1,0.4,0.4,0.4
		C25.9,43.2,26.7,43.2,27.5,43.2z"/>
	<path class="st0" d="M27.5,29.2c-0.8,0-1.6,0-2.4,0c-0.3,0-0.4-0.1-0.4-0.4c0-0.7,0-1.5,0-2.2c0-0.3,0.1-0.3,0.4-0.3
		c1.7,0,3.3,0,5,0c0.3,0,0.4,0.1,0.4,0.3c0,0.7,0,1.5,0,2.2c0,0.3-0.1,0.4-0.4,0.4C29.2,29.2,28.3,29.2,27.5,29.2z"/>
	<path class="st0" d="M27.5,36.2c-0.8,0-1.6,0-2.4,0c-0.3,0-0.4,0-0.4-0.4c0-0.7,0-1.4,0-2.2c0-0.3,0.1-0.4,0.4-0.4
		c1.6,0,3.3,0,4.9,0c0.3,0,0.4,0.1,0.4,0.4c0,0.7,0,1.4,0,2.1c0,0.3-0.1,0.4-0.4,0.4C29.2,36.2,28.3,36.2,27.5,36.2z"/>
	<path class="st0" d="M27.5,43.2c-0.8,0-1.6,0-2.5,0c-0.3,0-0.4-0.1-0.4-0.4c0-0.7,0-1.4,0-2.2c0-0.3,0.1-0.4,0.4-0.4
		c1.7,0,3.3,0,5,0c0.3,0,0.4,0.1,0.4,0.4c0,0.7,0,1.5,0,2.2c0,0.3-0.1,0.4-0.4,0.4C29.2,43.2,28.4,43.2,27.5,43.2z"/>
</g>
</svg>
