<?xml version="1.0" encoding="utf-8"?>
<!-- Generator: Adobe Illustrator 24.1.0, SVG Export Plug-In . SVG Version: 6.00 Build 0)  -->
<svg version="1.1" id="Layer_1" xmlns="http://www.w3.org/2000/svg" xmlns:xlink="http://www.w3.org/1999/xlink" x="0px" y="0px"
	 viewBox="0 0 50 50" style="enable-background:new 0 0 50 50;" xml:space="preserve">
<style type="text/css">
	.st0{fill:#16AF4B;}
	.st1{fill:#24AA4A;}
	.st2{fill:#5ABA4C;}
	.st3{fill:#0C6E38;}
	.st4{fill:#106F38;}
</style>
<g>
	<path class="st0" d="M32.4,48.4c-7.2,2.3-14.1,1.5-20.5-2.6C-1.8,36.9-3.4,18,8.5,6.8c8.7-8.2,22.8-8.6,32-0.9
		c0.4,0.4,0.9,0.7,1.3,1.1c0.6,0.5,1.3,1,1.7,1.7c2.7,3.3,4.5,6.9,5.5,11.1c2.4,10.6-3.1,22.4-12.8,27.1c-0.1,0-0.2,0-0.2,0
		C34.7,47.4,33.4,47.6,32.4,48.4z"/>
	<path class="st1" d="M32.4,48.4c0.8-1.2,2.1-1.4,3.4-1.4C34.8,47.7,33.6,48.1,32.4,48.4z"/>
	<path class="st2" d="M24.9,47.4c-12.4,0-22-10.3-22.2-21.9C2.4,12.6,13,2.3,25.4,2.6c11.7,0.2,22.2,10.2,21.8,23
		C47,37.5,37.4,47.5,24.9,47.4z"/>
	<path class="st3" d="M36.6,31.2c-1.4-1.6-2.8-3.2-4.3-4.7c-2.9-3-5.9-5.9-8.9-9c-1.4-1.5-2.9-2.9-4.4-4.3c-0.2-0.2-0.4-0.3-0.3-0.6
		c0.1-0.3,0.4-0.2,0.6-0.2c4.5,0,9-0.1,13.5,0c2.6,0.1,4.3,1.9,4.3,4.5c0,4.2,0,8.4,0,12.6c0,0.4,0,0.8,0,1.2
		C37,31,36.8,31.1,36.6,31.2z"/>
	<path class="st4" d="M31,37c-0.3,0.3-0.6,0.1-0.9,0.1c-4.3,0-8.6,0-12.9,0c-2.8,0-4.5-1.7-4.5-4.5c0-4.3,0-8.6,0-13
		c0-0.3-0.1-0.7,0.2-0.9c0.4-0.2,0.6,0.3,0.8,0.5c3.6,3.6,7.2,7.3,10.8,10.9c2,2,4.2,4,6.1,6.1C30.7,36.5,31,36.6,31,37z"/>
</g>
</svg>
