<?xml version="1.0" encoding="utf-8"?>
<!-- Generator: Adobe Illustrator 16.0.0, SVG Export Plug-In . SVG Version: 6.00 Build 0)  -->
<!DOCTYPE svg PUBLIC "-//W3C//DTD SVG 1.1//EN" "http://www.w3.org/Graphics/SVG/1.1/DTD/svg11.dtd">
<svg version="1.1" id="Layer_1" xmlns="http://www.w3.org/2000/svg" xmlns:xlink="http://www.w3.org/1999/xlink" x="0px" y="0px"
	 width="98px" height="65px" viewBox="0 0 98 65" enable-background="new 0 0 98 65" xml:space="preserve">
<path fill="#F9F9FA" d="M94.426,45.092c-2.879-3.771-11.151-2.484-13.578,1.285c-1.587,2.479-1.607,6.709,0.637,8.873
	c0.794,0.764,2.255,0.408,2.539,1.924c0.644,3.473-5.176,1.307-7.363,0.645c-2.302-0.699-4.551-1.521-5.96-2.061
	c-9.73-3.68-19.161-7.242-28.302-11.82c-0.745-0.371-5.133-2.012-4.19-3.852c0.341-0.672,2.891-0.801,3.936-1.033
	c1.308-0.283,3.485-0.543,3.682-1.287c0.206-0.766-1.259-2.029-1.902-2.182c-1.072-0.254-2.866,0.129-3.806,0.129
	c-6.738,0-12.182-0.82-16.876-2.827c-1.78-0.761-4.361-1.582-4.822-3.087c-1.059-3.411,4.608-5.539,6.977-6.553
	c0.704-0.297,2.632-1.34,3.297-1.156c0.958,0.267,1.421,2.709,1.78,3.47c0.571,1.221,1.167,2.429,1.901,3.339
	c3.305,4.085,11.496,5.112,15.864,0.771c1.994-1.98,3.381-4.985,4.311-7.836c0.263-0.816,0.642-2.829,1.02-3.084
	c0.939-0.644,4.541,0.067,5.835,0.255c2.016,0.293,3.836,0.812,5.207,1.156c3.818,0.961,6.251,1.36,8.629,4.242
	c-3.884,3.593-7.649,4.745-12.568,6.171c-1.689,0.482-4.395,1.247-7.23,2.054c-1.226,0.345-6.659,1.512-6.978,2.444
	c-0.395,1.139,0.77,2.922,1.9,3.211c1.805,0.463,4.769-0.572,6.726-1.029c2.354-0.549,4.534-1.195,6.218-1.67
	c4.225-1.197,8.176-2.27,11.424-4.238c2.217-1.356,4.646-4.435,6.978-4.763c2.788-0.383,4.837,1.404,7.866,1.291
	c1.628-0.068,3.859-0.854,4.061-2.695c0.212-1.987-1.771-3.895-3.043-4.629c-2.932-1.688-7.723-1.975-11.296-2.957
	c-8.019-2.205-15.481-3.502-24.747-3.983c-4.367-0.233-9.529-0.511-13.702-0.132c-7.087,0.651-12.495,3.425-17.771,5.913
	c-1.759,0.834-4.004,2.182-5.96,2.058c-1.744-0.113-4.39-2.387-4.313-4.243c0.056-1.403,1.688-2.503,2.792-3.341
	c6.191-4.706,13.274-7.192,23.095-7.836c3.725-0.248,7.69,0.271,11.292,0.77c12.933,1.785,24.594,4.183,36.674,6.555
	c1.19,0.23,4.467,1.297,5.201,0.769c0.638-0.455,0.491-2.471,0.255-3.34c-0.977-3.59-3.705-3.233-7.742-3.859
	C75.933,5.931,69.159,4.808,63.208,3.84c-8.479-1.375-17.892-3.01-27.282-2.568c-7.45,0.349-13.792,1.538-19.289,4.626
	c-2.521,1.418-5.059,3.021-7.23,4.753c-1.92,1.539-4.606,3.793-5.964,6.042c-0.531,0.875-1.966,4.145-1.014,5.269
	c1.09,1.29,4.444-0.683,5.58-0.388c0.693,0.182,1.82,2.328,2.794,2.956c1.635,1.073,3.712,0.95,3.804,3.215
	c0.166,4.049-5.99,1.611-8.627,2.702c-1.655,0.679-3.427,4.759-0.635,5.784c1.707,0.627,4.391-1.047,6.981-1.295
	c3.928-0.355,6.73,0.504,9.896,1.678c1.628,0.602,5.331,2.031,5.712,3.215c0.308,0.961,0.012,2.611,0.128,3.98
	c0.092,1.207,0.233,2.533,0.377,3.725c0.221,1.797,0.426,5.943,1.9,6.434c1.086,0.348,2.574-0.422,2.922-1.033
	c0.854-1.484-0.264-3.854-0.635-5.141c-0.498-1.711-1.215-3.098-1.017-5.271c0.128-1.377,1.222-3.332,2.159-3.082
	c1.098,0.293,1.551,3.527,1.652,5.016c0.31,4.662-0.928,8.35-0.257,12.979c0.235,1.592,1.377,4.16,3.172,3.08
	c1.287-0.771,0.514-4.48,0.382-6.17c-0.133-1.68-0.736-5.828,0.128-6.42c0.449-0.312,1.377,0.008,2.792,0.764
	c2.748,1.484,5.049,2.578,7.614,3.859c7.285,3.65,13.864,5.898,21.827,8.738c3.868,1.385,8.153,2.881,12.944,2.439
	c3.843-0.352,7.576-2.365,9.516-4.748C95.875,56.098,96.981,48.445,94.426,45.092z M33.01,20.808
	c0.658-1.594,3.348-2.748,6.088-3.086c4.042-0.503,10.014,1.143,9.902,4.881c-0.076,2.445-3.676,5.576-5.841,6.426
	c-3.347,1.317-6.564-0.071-8.372-2.308C33.627,25.288,32.236,22.687,33.01,20.808z M90.24,51.135
	c-0.229,1.445-2.174,2.98-2.156,3.98c0,0.291,0.413,0.654,0.379,0.898c-0.08,0.635-0.948,1.771-1.649,1.805
	c-0.59,0.027-1.116-0.307-1.143-0.773c-0.054-1.004,1.835-0.91,2.157-1.539c0.876-1.721-0.712-2.842-2.667-2.959
	c-0.505-1.553-0.128-2.928,0.51-3.469C87.399,47.617,90.634,48.617,90.24,51.135z"/>
</svg>
